<?xml version="1.0" encoding="utf-8"?>
<!-- Generator: Adobe Illustrator 24.1.0, SVG Export Plug-In . SVG Version: 6.00 Build 0)  -->
<svg version="1.1" xmlns="http://www.w3.org/2000/svg" xmlns:xlink="http://www.w3.org/1999/xlink" x="0px" y="0px"
	 viewBox="0 0 1190.6 841.9" style="enable-background:new 0 0 1190.6 841.9;" xml:space="preserve">
<g id="Layer_2">
</g>
<g id="Layer_1">
	<g>
		<rect x="521.6" y="445.1" width="123.4" height="19.8"/>
		<polygon points="848.2,55.4 465,438.6 191.6,165.2 147.2,209.6 420.6,483 434.6,497 448.3,483.3 862.2,69.4 		"/>
		<path d="M843.7,570.6l6.4-6.8c7.9-8.5,18.2-26.6,5.9-41C840.3,504.1,680.3,345,668,333.9c-4.3-3.9-10.1-5.7-15.9-5
			c-17.1,1.9-34.1,24.5-37.3,29.1l-4.9,6.8l419.5,419.5l14-14L843.7,570.6z"/>
		<polygon points="182.7,761.9 179.1,774.7 175.4,761.8 161.6,720.2 147.2,720.2 171,785.5 187,785.5 210.8,720.2 196.7,720.2 		"/>
		<rect x="220.7" y="720.2" width="13.7" height="65.3"/>
		<path d="M304.1,740.4c0-12.9-8.9-20.2-23.8-20.2h-28.8v65.3H265v-25.1h12.2l15.5,25.2H308L290.8,759
			C299.3,756.3,304.1,749.8,304.1,740.4z M278.6,750H265v-19h13.6c8,0,11.6,3,11.6,9.5S286.5,750,278.6,750z"/>
		<path d="M335.4,720.2l-23.9,65.3h13.9l5.4-16H356l5.4,16.1h14.2l-23.9-65.4H335.4z M334.2,759.4l6.3-18.6l2.8-9.7h0.2l3,9.9
			l6.1,18.4L334.2,759.4z"/>
		<path d="M438,740.3c0-12.9-9-20.1-23.8-20.1h-28.8v65.3h13.5v-25.1h12.3l15.4,25.1h15.4l-17.2-26.6
			C433.2,756.2,438,749.7,438,740.3z M412.4,750h-13.6v-19h13.6c8,0,11.6,3,11.6,9.5S420.3,750,412.4,750z"/>
		<path d="M494.1,720.2l-24,65.3h14l5.4-16h25.2l5.4,16.1h14.2l-23.9-65.4H494.1z M492.9,759.4l6.3-18.6l2.7-9.7h0.2l3,9.9l6.1,18.4
			H492.9z"/>
		<path d="M596.3,720.2h-27.4v65.3h13.7v-23.8h13.8c15.1,0,24.1-7.6,24.1-20.6C620.4,727.7,611.4,720.2,596.3,720.2z M594.2,751.1
			h-11.7V731h11.7c8.5,0,12.3,3.4,12.3,10C606.5,747.6,602.7,751.1,594.2,751.1z"/>
		<polygon points="651.1,697.8 645.5,713.2 655.7,713.2 664.6,697.8 		"/>
		<path d="M643.4,720.2l-24,65.3h14l5.4-16H664l5.5,16.1h14.2l-23.9-65.4H643.4z M642.2,759.4l6.3-18.6l2.8-9.7h0.2l3,9.9l6.1,18.4
			L642.2,759.4z"/>
		<path d="M716.8,761h19.1v1.5c0,8.7-6.8,13-15.7,13c-12.1,0-18.3-7.8-18.3-22.7c0-14.6,6.8-22.5,18-22.5c7.2,0,12.8,3.4,14.9,10.3
			l12.6-5.4c-5.2-11.1-13.7-16.1-27.8-16.1c-19.4,0-31.8,12.8-31.8,33.8c0,21.3,12.4,33.6,30.3,33.6c9.2,0,15.6-3.3,19.3-8.8
			l0.3,7.8h10v-34.6l-30.9-0.1V761z"/>
		<rect x="762.7" y="720.2" width="13.7" height="65.3"/>
		<polygon points="837.4,758 837.8,769.6 837.6,769.6 831.9,758.5 809,720.2 793.5,720.2 793.5,785.5 805.8,785.5 805.8,747.6 
			805.4,736.1 811,747 833.9,785.5 849.6,785.5 849.7,720.2 837.4,720.2 		"/>
		<path d="M883.1,720.2l-23.9,65.3h14l5.4-16h25.2l5.4,16.1h14.2l-23.9-65.4H883.1z M882,759.4l6.3-18.6l2.8-9.7h0.2l3,9.9l6.1,18.4
			L882,759.4z"/>
	</g>
</g>
</svg>
