<svg xmlns="http://www.w3.org/2000/svg" width="105" height="33" viewBox="0 0 105 33"><g fill="#FFF"><path d="M16 22.96c-3.696 0-6.508-2.83-6.508-6.48 0-3.702 2.812-6.55 6.612-6.55 2.16 0 3.647.634 4.985 1.942l.105.104c.04.04.043.103.006.146l-1.908 2.186c-.04.044-.106.05-.15.01l-.123-.11c-.98-.883-1.872-1.296-2.934-1.296-1.86 0-3.262 1.527-3.262 3.5 0 2.027 1.386 3.567 3.262 3.567 1.172 0 1.942-.375 3.02-1.348l.114-.103c.042-.04.106-.037.146.003l1.92 1.926c.04.04.04.105.002.147l-.105.11c-1.45 1.54-2.95 2.243-5.184 2.243zm13.464 0c-3.836 0-6.716-2.833-6.716-6.48 0-3.682 2.914-6.55 6.75-6.55s6.716 2.834 6.716 6.48c0 3.682-2.915 6.55-6.75 6.55zm.034-2.716c2.156 0 3.65-1.692 3.65-3.764v-.035c0-2.07-1.53-3.798-3.684-3.798-2.156 0-3.65 1.692-3.65 3.764v.035c0 2.072 1.53 3.8 3.684 3.8zm18.588-.332v2.735c0 .058-.047.106-.106.106h-9.065c-.058 0-.106-.048-.106-.106V10.244c0-.058.047-.106.105-.106h2.998c.06 0 .106.048.106.106v9.51c0 .028.023.052.052.052h5.908c.06 0 .106.048.106.106zm6.01-4.957h5.577c.058 0 .106.047.106.106v2.684c0 .058-.05.106-.107.106h-5.578c-.03 0-.053.023-.053.053v1.902c0 .03.024.053.053.053h6.447c.058 0 .106.047.106.106v2.683c0 .058-.048.106-.106.106h-9.587c-.058 0-.106-.048-.106-.106V10.244c0-.058.047-.106.105-.106h9.5c.058 0 .106.048.106.106v2.683c0 .058-.047.106-.105.106h-6.36c-.03 0-.053.024-.053.053v1.816c0 .03.024.053.053.053zm9.024-1.942v-2.77c0-.057.048-.105.106-.105H73.63c.058 0 .106.048.106.106v2.77c0 .058-.048.105-.106.105h-3.544c-.03 0-.053.023-.053.052v9.475c0 .058-.047.106-.106.106H66.93c-.06 0-.107-.048-.107-.106v-9.475c0-.03-.024-.053-.053-.053h-3.544c-.058 0-.106-.048-.106-.107zm16.746 9.74h-2.998c-.06 0-.106-.048-.106-.106V10.244c0-.058.047-.106.106-.106h2.998c.06 0 .106.048.106.106v12.403c0 .058-.047.106-.106.106zm9.305-4.733l2.92-7.813c.016-.04.056-.07.1-.07h3.235c.058 0 .106.05.106.107 0 .014-.002.027-.007.04l-5.048 12.49c-.016.04-.055.065-.098.065h-2.582c-.043 0-.082-.027-.098-.067l-5.048-12.49c-.023-.053.004-.115.058-.137.012-.005.026-.008.04-.008h3.304c.044 0 .083.028.1.07l2.92 7.812c.01.028.04.042.068.03.014-.004.025-.015.03-.03z"></path><path d="M3.2 3.735V29.21c0 .028.023.052.053.052h98.494c.03 0 .053-.024.053-.053V3.734c0-.03-.023-.053-.053-.053H3.253c-.03 0-.053.023-.053.053zM.106.505h104.788c.058 0 .106.047.106.105v31.723c0 .06-.048.106-.106.106H.106c-.058 0-.106-.048-.106-.107V.61C0 .552.048.504.106.504z"></path></g></svg>
