<svg width="91" height="22" viewBox="0 0 91 22" fill="none" xmlns="http://www.w3.org/2000/svg">
<path fill-rule="evenodd" clip-rule="evenodd" d="M20.1628 18.7964H23.0121H23.8793V20.7785H22.145C20.7272 20.7785 19.6673 20.4344 18.9653 19.7324C18.2771 19.0442 17.9192 17.9843 17.9192 16.5527V9.86314H14.946V7.86724H17.9192V4.39844H20.1491V7.86724H23.4939V9.84934H20.1491V18.4936V18.7964H20.1628ZM60.6865 9.61544C60.191 8.92714 59.5165 8.40414 58.6631 8.04624C57.8097 7.68834 56.8461 7.49564 55.7725 7.49564C54.1895 7.49564 52.9094 7.85354 51.9183 8.56924C50.9273 9.28504 50.4317 10.2485 50.4317 11.4736C50.4317 12.5197 50.7483 13.3043 51.3815 13.8549C52.0147 14.4055 52.8956 14.7909 54.0381 15.0249L56.3919 15.5204C57.1765 15.6856 57.7271 15.8233 58.0574 15.9196C58.3878 16.0297 58.6493 16.1674 58.842 16.3601C59.0347 16.539 59.1311 16.8281 59.1311 17.186C59.1311 17.7366 58.8558 18.2046 58.2914 18.59C57.7271 18.9754 56.9012 19.1681 55.8275 19.1681C53.3774 19.1681 52.0009 18.2183 51.6843 16.3188H49.3306C49.5508 17.7779 50.1977 18.9479 51.2714 19.8288C52.345 20.7098 53.8729 21.1502 55.8413 21.1502C56.9287 21.1502 57.8923 20.9713 58.7319 20.6272C59.5716 20.2831 60.2185 19.8013 60.6865 19.1819C61.1408 18.5625 61.3748 17.8605 61.3748 17.0621C61.3748 15.9884 61.0306 15.2038 60.3424 14.7083C59.6542 14.2128 58.6769 13.8274 57.3967 13.5658L55.043 13.0703C54.1758 12.8914 53.5701 12.6987 53.2122 12.4784C52.8543 12.2582 52.6754 11.9141 52.6754 11.4323C52.6754 10.868 52.9369 10.3999 53.46 10.0421C53.9831 9.67044 54.7126 9.49154 55.6624 9.49154C57.8372 9.49154 58.9934 10.3174 59.1311 11.9691H61.4849C61.4436 11.0744 61.182 10.2898 60.6865 9.61544ZM28.8898 9.86334C29.3165 8.50064 30.3902 7.82614 32.097 7.82614H33.1844V10.056H31.7667C30.6517 10.056 29.8258 10.3175 29.289 10.8544C28.7384 11.3774 28.4631 12.2584 28.4631 13.4559V20.7788H26.2332V7.86744H28.4631V9.84954H28.8898V9.86334ZM8.62822 20.5309C9.28892 20.1042 9.82572 19.4985 10.2249 18.7002H10.5965V20.7786H12.8402V7.86734H10.6103V14.5707C10.6103 16.0986 10.2662 17.2411 9.57792 18.0119C8.88972 18.7827 7.91242 19.1682 6.63232 19.1682C5.50362 19.1682 4.63642 18.8516 4.04452 18.2459C3.45262 17.6265 3.14982 16.7318 3.14982 15.5618V7.86734H0.919922V15.961C0.919922 17.6265 1.36042 18.9066 2.24132 19.8151C3.12232 20.7098 4.33362 21.164 5.88902 21.164C7.04522 21.164 7.95372 20.9576 8.62822 20.5309ZM42.8887 20.5309C43.5494 20.1042 44.0863 19.4985 44.4854 18.7002H44.8708V20.7786H47.1007V7.86734H44.8708V14.5707C44.8708 16.0986 44.5267 17.2411 43.8385 18.0119C43.1503 18.7827 42.173 19.1682 40.8928 19.1682C39.7641 19.1682 38.897 18.8516 38.3051 18.2459C37.7132 17.6265 37.4104 16.7318 37.4104 15.5618V7.86734H35.1805V15.961C35.1805 17.6265 35.6209 18.9066 36.5019 19.8151C37.3828 20.7098 38.5941 21.164 40.1495 21.164C41.3058 21.164 42.2143 20.9576 42.8887 20.5309ZM70.845 18.7964H67.9819V18.4936V9.84934H71.3267V7.86724H67.9819V4.39844H65.752V7.86724H62.7788V9.86314H65.752V16.5527C65.752 17.9843 66.1099 19.0442 66.7981 19.7324C67.5001 20.4344 68.56 20.7785 69.9778 20.7785H71.7121V18.7964H70.845Z" fill="white"/>
<path d="M87.2115 3.20118V5.66508V12.9054H77.8927V5.19707V3.20118H87.2115V0.296875H81.4991L74.9883 5.33478V8.56948C74.9883 12.7953 78.457 16.3604 82.6829 16.2778C86.7985 16.2089 90.1156 12.8366 90.1156 8.72087V3.20118H87.2115Z" fill="white"/>
</svg>
