<svg id="Layer_1" data-name="Layer 1" xmlns="http://www.w3.org/2000/svg" viewBox="0 0 1190.55 841.89"><title>Logo-original</title><path d="M836.14,615.71,602.57,382.15l2.72-3.8c1.8-2.52,11.25-15.13,20.79-16.19a11.11,11.11,0,0,1,8.83,2.8c6.87,6.15,95.9,94.71,104.73,105.14,3.67,4.33,4.11,10,1.25,16.08a28.39,28.39,0,0,1-4.57,6.76l-8-7.54c.83-.91,4.76-6,2.93-8.18-8.72-10.3-96.85-98-103.67-104a.29.29,0,0,0-.09-.07c-1.52-.3-6.1,3.12-10.35,8l226.81,226.8ZM505,455.74l-160-160,7.79-7.78L505,440.16,735.28,209.89l7.79,7.79Zm117.08-17.9H553.4v-11h68.69Z"/><path d="M367.88,615.71H359l-13.25-36.3h8l7.64,23.1,2.09,7.15,2-7.1,7.7-23.15h7.81Z"/><path d="M394.17,615.71h-7.59v-36.3h7.59Z"/><path d="M417.93,601.79h-6.82v13.92h-7.48v-36.3h16c8.25,0,13.2,4.07,13.2,11.22,0,5.22-2.69,8.8-7.42,10.34L435,615.71h-8.53ZM411.11,596h7.53c4.4,0,6.44-1.65,6.44-5.28s-2-5.28-6.44-5.28h-7.53Z"/><path d="M461.65,606.85h-14l-3,8.86H437l13.25-36.3h9.08l13.25,36.3h-7.86Zm-1.87-5.61L456.37,591l-1.65-5.5h-.11l-1.54,5.39-3.52,10.34Z"/><path d="M492.23,601.79h-6.82v13.92h-7.48v-36.3h16c8.24,0,13.19,4.07,13.19,11.22,0,5.22-2.69,8.8-7.42,10.34l9.57,14.74h-8.53ZM485.41,596H493c4.4,0,6.43-1.65,6.43-5.28s-2-5.28-6.43-5.28h-7.54Z"/><path d="M549.71,606.85h-14l-3,8.86H525l13.25-36.3h9.08l13.25,36.3h-7.86Zm-1.87-5.61L544.43,591l-1.65-5.5h-.11l-1.54,5.39-3.52,10.34Z"/><path d="M608.35,591.07c0,7.2-5,11.44-13.36,11.44h-7.65v13.2h-7.59v-36.3H595C603.4,579.41,608.35,583.64,608.35,591.07Zm-7.7-.06c0-3.68-2.09-5.55-6.82-5.55h-6.49v11.16h6.49C598.56,596.62,600.65,594.7,600.65,591Z"/><path d="M632.6,606.85h-14l-3,8.86h-7.76l13.26-36.3h9.07l13.25,36.3h-7.86Zm-1.87-5.61L627.33,591l-1.65-5.5h-.11L624,590.9l-3.52,10.34ZM628,575.56h-5.67L625.4,567h7.48Z"/><path d="M679,596.51v19.2h-5.55l-.17-4.35c-2.09,3.08-5.61,4.89-10.72,4.89-10,0-16.83-6.81-16.83-18.64,0-11.66,6.87-18.75,17.65-18.75,7.87,0,12.6,2.75,15.46,8.91l-7,3c-1.15-3.85-4.23-5.72-8.25-5.72-6.21,0-10,4.4-10,12.49,0,8.25,3.47,12.59,10.18,12.59,4.89,0,8.69-2.36,8.69-7.2v-.83H661.86v-5.61Z"/><path d="M694.92,615.71h-7.59v-36.3h7.59Z"/><path d="M735.56,615.71h-8.69l-12.7-21.34L711,588.26h0l.22,6.44v21h-6.82v-36.3H713l12.71,21.28,3.13,6.16H729l-.22-6.43v-21h6.82Z"/><path d="M765.65,606.85h-14l-3,8.86H741l13.25-36.3h9.07l13.26,36.3h-7.87Zm-1.87-5.61L760.37,591l-1.65-5.5h-.11l-1.54,5.39-3.52,10.34Z"/></svg>
