<svg width="503" height="215" viewBox="0 0 503 215" fill="none" xmlns="http://www.w3.org/2000/svg">
<path d="M155.899 59.6001C149.499 59.6001 144.399 64.8001 144.399 71.1001V111.3C144.399 125.1 133.199 136.3 119.399 136.3H116.199V116.8C116.199 110.4 110.999 105.3 104.699 105.3C98.2992 105.3 93.1992 110.5 93.1992 116.8V136.3H89.0992C74.2992 136.3 62.2992 124.3 62.2992 109.5C62.2992 94.7001 74.2992 82.7001 89.0992 82.7001C95.4992 82.7001 100.599 77.5001 100.599 71.2001C100.599 64.9001 95.3992 59.7001 89.0992 59.7001C61.5992 59.7001 39.1992 82.1001 39.1992 109.6C39.1992 135.6 59.1992 157 84.6992 159.3C85.3992 159.4 86.0992 159.5 86.7992 159.5H119.299C145.799 159.5 167.299 138 167.299 111.5V71.3001C167.399 64.7001 162.299 59.6001 155.899 59.6001Z" fill="white"/>
<path d="M194.3 81.6999C192.5 75.4999 190 69.4999 187 63.9999L190.4 40.2999L174 23.8999L150.3 27.3999C144.7 24.2999 138.8 21.8999 132.6 20.0999L118.3 0.899902H95.1L80.8 19.9999C74.6 21.7999 68.7 24.2999 63.1 27.2999L39.4 23.7999L23 40.2999L26.5 63.9999C23.4 69.5999 21 75.4999 19.2 81.6999L0 95.9999V119.2L19.2 133.5C21 139.7 23.5 145.7 26.5 151.2L23 174.9L39.4 191.3L63.1 187.8C68.7 190.9 74.6 193.3 80.8 195.2L95.1 214.4H118.3L132.6 195.2C138.8 193.4 144.8 190.9 150.3 187.9L174 191.3L190.4 174.9L187 151.2C190 145.6 192.5 139.7 194.3 133.5L213.5 119.2V95.9999L194.3 81.6999Z" fill="#FCB52E"/>
<path d="M155.899 59.6001C149.499 59.6001 144.399 64.8001 144.399 71.1001V111.3C144.399 125.1 133.199 136.3 119.399 136.3H116.199V116.8C116.199 110.4 110.999 105.3 104.699 105.3C98.2992 105.3 93.1992 110.5 93.1992 116.8V136.3H89.0992C74.2992 136.3 62.2992 124.3 62.2992 109.5C62.2992 94.7001 74.2992 82.7001 89.0992 82.7001C95.4992 82.7001 100.599 77.5001 100.599 71.2001C100.599 64.9001 95.3992 59.7001 89.0992 59.7001C61.5992 59.7001 39.1992 82.1001 39.1992 109.6C39.1992 135.6 59.1992 157 84.6992 159.3C85.3992 159.4 86.0992 159.5 86.7992 159.5H119.299C145.799 159.5 167.299 138 167.299 111.5V71.3001C167.399 64.7001 162.299 59.6001 155.899 59.6001Z" fill="white"/>
<path d="M256.801 69.6999C256.801 55.2999 261.601 45.3999 279.801 45.3999C288.101 45.3999 293.501 48.2999 297.101 52.3999L291.101 57.9999C288.901 55.6999 285.701 53.2999 279.701 53.2999C268.201 53.2999 264.901 59.4999 264.901 69.8999C264.901 80.2999 268.101 86.6999 279.701 86.6999C284.701 86.6999 288.001 85.0999 291.501 81.8999L296.901 87.0999C292.101 91.4999 287.501 93.9999 279.301 93.9999C261.601 93.8999 256.801 84.0999 256.801 69.6999Z" fill="white"/>
<path d="M305.699 46.8999L312.199 46.4999L312.999 52.1999C314.799 48.7999 320.499 46.0999 328.799 45.8999V54.0999C317.599 54.1999 313.999 59.9999 313.999 68.4999V93.0999H305.799V46.8999H305.699Z" fill="white"/>
<path d="M366.601 72.5V69.6001H364.501C345.301 69.6001 341.101 71.8001 341.101 79.2001C341.101 84.1001 343.401 86.8 351.301 86.8C362.101 86.9 366.601 82.5 366.601 72.5ZM333.301 79.8C333.301 66.6 340.801 62.7 364.101 62.7H366.601C366.401 56 364.801 53 354.901 53C349.001 53 344.101 55.1 341.201 56.9L336.901 50.5C340.001 48.4 347.401 45.3 355.701 45.3C371.601 45.3 374.501 50.7 374.501 64V80.6001C374.501 85.1001 374.801 85.8 379.101 85.8V92.9C378.501 93.1 377.401 93.1001 375.701 93.1001C370.601 93.1001 368.901 91.7 367.701 87.8C364.901 91.7 359.901 93.8 349.901 93.8C336.601 93.9 333.301 87.7 333.301 79.8Z" fill="white"/>
<path d="M387.801 46.8999L394.301 46.4999L395.001 50.8999C397.201 47.9999 401.601 45.3999 412.201 45.3999C427.001 45.3999 429.001 53.1999 429.001 64.6999V93.0999H420.901V66.2999C420.901 58.7999 420.201 53.4999 409.701 53.4999C398.201 53.4999 396.201 59.2999 396.201 67.2999V93.0999H388.001V46.8999H387.801Z" fill="white"/>
<path d="M440.398 28H448.398V70.4L469.098 46.5H478.098L461.598 65.8L479.798 93.1H470.698L456.198 71.8L448.398 80.6V93.1H440.398V28Z" fill="white"/>
<path d="M254.102 121H262.702L274.702 156.2L286.302 121H294.302L305.902 156.2L318.102 121H326.402L309.902 168.1H301.802L290.202 133.4L278.702 168.1H270.402L254.102 121Z" fill="white"/>
<path d="M333.898 102.6H341.998V125.1C343.798 122.4 348.298 120 358.198 120C372.998 120 374.998 127.8 374.998 139.3V167.7H366.898V140.9C366.898 133.4 366.198 128.1 355.698 128.1C344.198 128.1 342.198 133.9 342.198 141.9V167.7H333.998V102.6H333.898Z" fill="white"/>
<path d="M392.5 140.2H419.2C418.8 132.8 418.1 127.1 407 127.1C396.3 127.2 393.1 132.4 392.5 140.2ZM384.5 144.3C384.5 130.9 388.6 120 407.2 120C426.4 120 427.1 133.3 426.8 147.5H392.4C392.9 156 395.8 161.6 407.4 161.6C414.9 161.6 418.6 159.7 422.2 157L426.6 162.7C421.7 166.6 416.2 168.7 407.4 168.7C388.3 168.6 384.5 157.8 384.5 144.3Z" fill="white"/>
<path d="M442.701 140.2H469.401C469.001 132.8 468.301 127.1 457.201 127.1C446.601 127.2 443.401 132.4 442.701 140.2ZM434.801 144.3C434.801 130.9 438.901 120 457.501 120C476.701 120 477.401 133.3 477.101 147.5H442.701C443.201 156 446.101 161.6 457.701 161.6C465.201 161.6 468.901 159.7 472.501 157L476.901 162.7C472.001 166.6 466.501 168.7 457.701 168.7C438.501 168.6 434.801 157.8 434.801 144.3Z" fill="white"/>
<path d="M487.102 155.6V102.6H495.102V154.7C495.102 159.1 495.802 160.5 500.302 160.5H502.102V167.6C501.302 167.7 499.502 167.8 497.502 167.8C489.802 167.7 487.102 164.5 487.102 155.6Z" fill="white"/>
</svg>
