<svg width="82" height="29" viewBox="0 0 82 29" fill="none" xmlns="http://www.w3.org/2000/svg">
<path d="M12.4874 29C18.2063 29 24.9386 24.5706 24.9386 15.8558C24.9386 6.88887 17.5547 2.81955 12.3788 2.81955C6.76853 2.81955 0 7.24898 0 15.9638C0 24.9307 7.38385 29 12.4874 29ZM13.7904 28.4599C10.4243 28.4599 6.29799 21.9778 6.29799 13.587C6.29799 6.52875 8.97645 3.35972 11.112 3.35972C14.5867 3.35972 18.6406 9.87784 18.6406 18.2325C18.6406 25.2908 15.9621 28.4599 13.7904 28.4599Z" fill="white"/>
<path d="M43.58 24.1385V13.2989C43.58 11.7144 42.7476 10.31 40.3225 10.31C38.006 10.31 35.6171 11.4984 34.1693 12.3987V10.526H27.1112V10.5981C28.9571 11.5704 29.0295 13.0109 29.0295 14.9195V24.1385C29.0295 26.0471 28.9571 27.4876 27.1112 28.4599V28.5319H35.7618V28.4599C34.2778 27.5956 34.1693 26.0471 34.1693 24.1385V12.9028C35.2913 12.1826 36.16 12.0746 36.8115 12.0746C38.006 12.0746 38.4403 13.1549 38.4403 14.3073V24.1385C38.4403 26.0471 38.2593 27.5956 36.8115 28.4599V28.5319H45.4984V28.4599C43.6524 27.4876 43.58 26.0471 43.58 24.1385Z" fill="white"/>
<path d="M62.4604 20.8255V0.0107422L55.4023 3.32371V3.39574C57.2483 4.36805 57.3207 5.80852 57.3207 7.71714V10.526H56.4882C52.0724 10.526 46.9688 13.2989 46.9688 20.0691C46.9688 25.939 50.7693 28.5319 55.9815 28.5319H64.3788V28.4599C62.5328 27.4876 62.4604 22.7341 62.4604 20.8255ZM57.2483 28.0277C54.5337 28.0277 52.2534 23.3822 52.2534 17.4403C52.2534 11.8945 54.0631 11.0302 56.3072 11.0302H57.3207V28.0277H57.2483Z" fill="white"/>
<path d="M80.0816 24.1385V14.4873C80.0816 12.2186 78.8872 10.274 75.3039 10.274C73.1683 10.274 71.069 10.5981 69.4402 10.8862L66.436 14.8835L66.5084 14.9555C67.8114 13.8031 71.1052 10.8502 73.0597 10.8502C74.4352 10.8502 75.1591 12.1106 75.1591 13.6231C75.1591 15.7477 73.8922 16.7201 70.4175 18.7727C67.2685 20.6093 65.6759 21.7617 65.6759 24.4266C65.6759 26.3352 67.0513 28.7119 70.2727 28.7119C71.9015 28.7119 73.856 27.3435 75.0143 26.3712V28.5319H82V28.4599C80.154 27.4876 80.0816 26.0471 80.0816 24.1385ZM72.9874 26.9474C71.8653 26.9474 70.5261 25.4709 70.5261 23.2742C70.5261 19.565 71.431 19.0248 75.0143 16.1079V24.4986C75.0143 26.0471 74.1094 26.9474 72.9874 26.9474Z" fill="white"/>
</svg>
